<?xml version="1.0" standalone="no"?>
<!DOCTYPE svg PUBLIC "-//W3C//DTD SVG 20010904//EN"
 "http://www.w3.org/TR/2001/REC-SVG-20010904/DTD/svg10.dtd">
<svg version="1.0" xmlns="http://www.w3.org/2000/svg"
 width="500.000000pt" height="500.000000pt" viewBox="0 0 500.000000 500.000000"
 preserveAspectRatio="xMidYMid meet">

<g transform="translate(0.000000,500.000000) scale(0.100000,-0.100000)"
fill="#000000" stroke="none">
<path d="M3965 3592 c-11 -2 -24 -8 -29 -13 -11 -10 26 -44 72 -64 42 -18 41
-35 -8 -136 -45 -94 -52 -154 -22 -204 l18 -30 -32 -42 c-34 -44 -50 -107 -38
-145 4 -13 18 -48 32 -78 14 -30 27 -75 30 -100 5 -54 -17 -87 -86 -131 -36
-23 -42 -30 -28 -35 22 -9 98 21 128 50 78 78 83 104 43 218 -40 115 -35 140
47 222 27 27 48 49 46 51 -76 53 -80 58 -75 100 3 22 17 66 31 98 40 90 29
189 -25 218 -31 16 -79 26 -104 21z"/>
<path d="M974 3555 c-47 -50 -58 -99 -50 -227 l7 -107 -35 -39 c-20 -22 -36
-47 -36 -56 0 -9 -5 -16 -10 -16 -7 0 -7 -6 0 -20 6 -11 19 -20 30 -20 11 0
27 -11 36 -25 16 -25 16 -45 -1 -140 -40 -221 -39 -204 -15 -230 12 -13 33
-26 47 -30 35 -8 89 12 113 42 l20 26 -21 23 c-20 22 -24 22 -50 9 -17 -9 -30
-11 -34 -5 -3 5 6 62 21 127 28 128 27 177 -7 224 l-20 29 25 43 c29 49 31 80
14 173 -9 49 -9 73 1 104 13 45 72 107 110 117 25 6 25 7 -9 19 -65 23 -99 18
-136 -21z"/>
<path d="M2802 3498 c-7 -7 -12 -20 -12 -29 0 -65 -67 -199 -85 -170 -8 15
-56 13 -75 -2 -8 -7 -32 -31 -53 -55 l-38 -43 7 53 c4 29 11 63 15 76 17 45
-28 85 -69 63 -11 -6 -22 -23 -25 -38 -3 -16 -12 -52 -21 -80 -35 -124 -45
-350 -16 -403 28 -51 90 2 90 78 0 42 33 151 64 210 17 32 84 102 98 102 6 0
-1 -15 -16 -34 -14 -19 -26 -43 -26 -54 0 -23 30 -52 54 -52 16 0 17 -9 11
-92 -4 -51 -8 -113 -9 -138 -5 -125 -4 -120 -31 -120 -41 0 -33 -36 12 -55 34
-14 39 -14 77 5 42 20 108 89 120 125 3 11 44 61 91 110 47 50 88 100 91 112
4 13 11 20 17 16 6 -3 7 -1 3 6 -4 6 2 22 14 34 62 65 96 241 58 296 -39 55
-123 78 -192 51 -21 -8 -30 -5 -50 15 -27 27 -83 34 -104 13z m273 -102 c17
-12 18 -18 6 -72 -24 -104 -170 -363 -273 -482 l-28 -33 0 58 c0 71 34 275 60
363 26 86 73 139 147 166 49 17 65 17 88 0z"/>
<path d="M1565 3458 c-59 -11 -89 -33 -65 -49 12 -8 11 -9 -5 -7 -30 5 -111
-163 -126 -261 -17 -116 -8 -287 18 -337 28 -53 69 -72 110 -51 58 30 112 106
129 182 6 27 3 25 -34 -22 -46 -58 -68 -73 -106 -73 -18 0 -26 5 -26 18 0 15
2 15 11 2 9 -12 10 -12 5 3 -3 10 -6 26 -6 35 0 13 -2 14 -8 4 -6 -9 -12 -5
-20 13 -7 15 -8 24 -4 21 5 -3 7 17 4 44 -3 35 -1 50 7 50 7 0 11 -8 10 -17
-6 -67 6 -51 16 20 15 104 35 169 77 252 39 78 53 93 92 97 24 2 32 8 34 26 4
27 -24 63 -47 61 -9 -1 -38 -5 -66 -11z"/>
<path d="M3390 3322 c-58 -47 -23 -438 42 -473 28 -15 73 5 87 39 9 22 37 114
75 247 2 6 7 21 13 35 6 14 18 51 28 82 10 32 22 55 26 52 5 -3 9 4 9 15 0 72
-88 -64 -156 -239 l-29 -75 -5 70 c-3 39 -2 92 2 118 9 60 2 99 -24 126 -23
26 -39 26 -68 3z"/>
<path d="M1960 3272 c-105 -33 -57 -80 61 -61 34 5 63 8 65 6 3 -2 -37 -42
-88 -87 -147 -133 -179 -170 -176 -205 5 -48 45 -53 164 -20 55 16 108 35 119
43 18 13 15 14 -35 8 -30 -4 -71 -9 -90 -13 -34 -6 -33 -5 54 90 108 117 126
143 126 185 0 61 -13 72 -83 71 -34 0 -87 -8 -117 -17z"/>
<path d="M3235 3263 c-29 -7 -44 -22 -66 -66 -30 -57 -43 -145 -30 -194 14
-51 33 -67 79 -66 30 1 44 9 70 39 42 49 41 62 -4 28 -29 -23 -37 -25 -45 -13
-16 25 -11 59 10 59 10 0 30 12 45 26 37 37 37 113 0 161 -14 18 -28 32 -32
32 -4 -1 -16 -4 -27 -6z m45 -67 c0 -24 -34 -75 -44 -66 -5 5 34 90 41 90 2 0
3 -11 3 -24z"/>
<path d="M1717 3223 c-38 -40 -57 -94 -57 -162 0 -53 3 -62 27 -81 74 -58 180
51 151 155 -4 17 -5 43 -2 58 12 58 -71 79 -119 30z m87 -102 c-7 -40 -29 -86
-44 -96 -15 -9 -12 70 4 110 11 25 19 33 31 29 12 -5 14 -15 9 -43z"/>
<path d="M2315 3240 c-3 -5 -21 -10 -40 -10 -62 0 -115 -80 -115 -174 0 -50
16 -69 57 -64 22 2 33 13 49 47 l21 43 6 -58 c6 -58 33 -109 57 -109 10 0 13
18 11 70 -1 40 5 98 14 133 17 64 14 110 -8 124 -17 11 -45 10 -52 -2z m-32
-57 c3 -5 -6 -28 -19 -53 -25 -48 -30 -39 -13 23 9 35 22 46 32 30z"/>
<path d="M2153 2003 c-21 -48 -25 -294 -5 -314 22 -23 35 3 23 46 -8 29 -5 60
11 143 11 59 22 119 25 135 4 23 2 27 -16 27 -16 0 -27 -11 -38 -37z"/>
<path d="M2231 2022 c-25 -47 -39 -249 -22 -312 9 -31 31 -32 42 -2 6 15 5 21
-1 17 -22 -14 -3 164 29 272 5 17 7 34 3 37 -12 13 -42 5 -51 -12z"/>
<path d="M3142 2010 c-9 -11 -25 -29 -34 -40 -10 -10 -13 -22 -9 -25 15 -9
-10 -73 -30 -78 -23 -6 -25 -27 -4 -27 11 0 15 -13 15 -52 0 -61 16 -128 31
-128 15 0 19 19 22 108 2 60 7 86 17 92 13 8 16 -4 20 -75 5 -89 10 -104 29
-82 11 15 15 38 26 162 3 38 11 73 18 77 7 4 29 8 50 8 20 0 37 5 37 10 0 6
-20 10 -44 10 -31 0 -46 5 -50 16 -4 10 -13 13 -26 9 -14 -4 -20 -2 -20 8 0
24 -29 28 -48 7z m38 -95 c0 -16 -6 -25 -15 -25 -16 0 -19 9 -9 34 9 25 24 19
24 -9z"/>
<path d="M2884 1991 c-88 -63 -126 -143 -88 -181 11 -11 37 -25 59 -32 57 -19
53 -42 -8 -46 -61 -4 -58 -24 6 -36 59 -12 100 10 95 52 -2 21 -15 33 -55 55
-42 22 -53 33 -53 53 0 25 59 92 101 115 l23 12 -18 -29 c-10 -16 -27 -38 -37
-50 -19 -20 -26 -54 -11 -54 20 0 55 36 77 81 20 39 23 54 15 69 -15 29 -60
25 -106 -9z"/>
<path d="M1365 1978 c-4 -18 -20 -50 -37 -71 -28 -35 -29 -40 -14 -56 11 -12
16 -37 16 -84 0 -57 -3 -67 -17 -67 -16 0 -16 -1 -1 -16 26 -26 53 -9 125 84
75 95 93 128 93 171 0 40 -26 58 -97 65 l-61 7 -7 -33z m125 -34 c0 -29 -57
-143 -95 -189 l-24 -30 0 35 c-1 84 31 175 68 195 38 21 51 18 51 -11z"/>
<path d="M2540 1955 c-9 -32 -18 -45 -31 -45 -26 0 -49 -38 -49 -81 0 -64 34
-72 64 -14 l16 30 0 -28 c0 -35 18 -70 31 -62 5 4 6 13 0 23 -10 21 -7 75 9
142 10 40 9 54 0 65 -20 24 -27 18 -40 -30z m-39 -132 c-8 -15 -10 -15 -11 -2
0 17 10 32 18 25 2 -3 -1 -13 -7 -23z"/>
<path d="M1841 1918 c-24 -94 -19 -196 11 -186 6 2 17 26 23 54 13 56 27 85
50 104 15 12 16 7 10 -61 -10 -117 24 -136 52 -29 15 58 39 100 59 100 8 0 14
7 14 15 0 22 -20 18 -48 -7 l-24 -23 7 38 c7 33 5 37 -14 37 -12 0 -24 -7 -27
-15 -4 -8 -11 -15 -17 -15 -6 0 -20 -9 -32 -20 l-21 -20 4 35 c4 30 1 35 -16
35 -14 0 -22 -11 -31 -42z"/>
<path d="M3510 1908 c-16 -72 -10 -173 10 -173 10 0 19 17 27 48 13 55 42 108
62 115 10 3 11 -1 5 -19 -14 -42 -10 -91 9 -103 19 -12 47 0 56 25 4 12 2 12
-12 0 -15 -11 -17 -11 -17 2 0 8 7 17 15 21 21 8 20 72 -1 80 -9 3 -19 4 -24
1 -4 -3 -10 2 -14 10 -7 20 -25 19 -49 -2 -18 -17 -19 -17 -16 12 3 24 0 31
-18 33 -18 3 -23 -4 -33 -50z"/>
<path d="M1640 1915 c-8 -9 -10 -29 -7 -51 4 -25 2 -37 -9 -41 -18 -7 -18 -47
1 -63 12 -10 21 -10 45 0 35 15 47 48 29 82 -8 12 -14 36 -14 53 0 34 -24 45
-45 20z m28 -121 c-5 -28 -28 -29 -28 -1 0 13 3 27 7 31 10 10 25 -10 21 -30z"/>
<path d="M1537 1888 c-48 -76 -7 -159 48 -98 19 21 7 28 -13 8 -22 -22 -13 5
10 29 18 19 20 28 12 51 -12 35 -39 40 -57 10z"/>
<path d="M2595 1880 c-16 -30 -19 -67 -9 -94 7 -19 45 -21 62 -4 17 17 15 33
-2 19 -9 -8 -16 -8 -20 -2 -4 6 3 15 14 21 35 19 22 90 -17 90 -7 0 -19 -13
-28 -30z"/>
<path d="M3246 1893 c-7 -21 -6 -90 1 -115 2 -10 12 -18 22 -18 14 0 21 11 26
43 l8 42 6 -40 c5 -31 10 -40 26 -40 15 0 22 11 31 50 6 28 14 60 18 73 11 33
-10 27 -24 -8 -10 -24 -15 -28 -26 -19 -8 6 -20 9 -28 6 -10 -4 -16 2 -18 16
-4 27 -34 35 -42 10z"/>
<path d="M1764 1893 c-22 -4 -44 -41 -44 -74 0 -28 28 -36 45 -13 14 18 14 17
15 -8 0 -23 16 -46 24 -37 2 2 7 34 11 72 7 73 8 72 -51 60z"/>
<path d="M2055 1890 c-16 -27 -24 -74 -14 -91 25 -47 80 -2 75 61 -3 29 -8 36
-29 38 -14 2 -28 -2 -32 -8z m45 -37 c0 -5 -5 -15 -10 -23 -8 -12 -10 -11 -10
8 0 12 5 22 10 22 6 0 10 -3 10 -7z"/>
<path d="M2275 1870 c-19 -37 -19 -64 0 -80 36 -30 74 12 67 74 -3 30 -8 36
-28 36 -16 0 -28 -9 -39 -30z m45 -30 c0 -11 -4 -20 -9 -20 -5 0 -7 9 -4 20 3
11 7 20 9 20 2 0 4 -9 4 -20z"/>
<path d="M2973 1866 c-21 -45 -11 -86 20 -86 35 0 47 19 47 72 0 45 -2 48 -25
48 -19 0 -29 -9 -42 -34z m36 -50 c-9 -8 -10 -7 -5 7 3 10 7 24 7 30 1 7 3 4
6 -7 3 -10 -1 -23 -8 -30z"/>
<path d="M3432 1893 c-40 -8 -61 -103 -23 -103 10 0 22 8 27 18 6 14 8 12 13
-12 11 -52 28 -40 34 25 9 81 7 83 -51 72z"/>
</g>
</svg>
